<svg xmlns="http://www.w3.org/2000/svg" xmlns:svg="http://www.w3.org/2000/svg" id="svg2" width="40" height="40" version="1.1"><metadata id="metadata7"/><g id="layer1" transform="translate(-325.27709,-397.00105)"><g id="g3956" transform="translate(5.11798,-19.820795)"><path style="font-size:36px;font-style:normal;font-variant:normal;font-weight:400;font-stretch:normal;text-align:start;line-height:83.99999738%;letter-spacing:0;word-spacing:0;writing-mode:lr-tb;text-anchor:start;fill:red;fill-opacity:1;stroke:none;font-family:Kefa;-inkscape-font-specification:Kefa" id="path3014" d="m 328.87713,451.89626 0,-30.14883 13.1392,0 c 6.12482,3e-5 9.18723,2.49207 9.18723,7.4761 -2e-5,2.41736 -0.71979,4.42727 -2.15929,6.02976 -0.85557,0.93708 -2.08465,1.79265 -3.68713,2.56674 l 6.08395,14.07623 -7.0483,0 -4.69873,-12.32435 -4.90937,0 0,12.32435 -5.90756,0 m 5.90756,-16.45963 3.30009,0 c 2.59386,2e-5 4.4476,-0.60431 5.56121,-1.813 0.84197,-0.90988 1.26299,-2.09818 1.263,-3.5649 -2e-5,-1.53458 -0.58397,-2.6346 -1.7519,-3.30007 -1.00498,-0.58394 -2.4513,-0.87592 -4.33899,-0.87595 l -4.03343,0 0,9.55392"/></g></g></svg>